<svg width="22" height="22" viewBox="0 0 22 22" fill="none" xmlns="http://www.w3.org/2000/svg">
<path fill-rule="evenodd" clip-rule="evenodd" d="M10.75 0.5H10C9.0335 0.5 8.25 1.2835 8.25 2.25V3.04168C8.25 3.84349 7.28057 4.24504 6.7136 3.67807L6.15381 3.11828C5.47039 2.43487 4.36235 2.43487 3.67894 3.11828L2.61828 4.17895C1.93486 4.86236 1.93486 5.9704 2.61828 6.65382L3.17806 7.2136C3.74503 7.78057 3.34348 8.75 2.54167 8.75H1.75C0.783502 8.75 0 9.5335 0 10.5V12C0 12.9665 0.783502 13.75 1.75 13.75H2.54168C3.34349 13.75 3.74504 14.7194 3.17807 15.2864L2.61827 15.8462C1.93485 16.5296 1.93485 17.6377 2.61827 18.3211L3.67893 19.3817C4.36235 20.0652 5.47039 20.0652 6.1538 19.3817L6.7136 18.8219C7.28057 18.255 8.25 18.6565 8.25 19.4583V20.25C8.25 21.2165 9.0335 22 10 22H10.75H11.5C12.4665 22 13.25 21.2165 13.25 20.25V19.4583C13.25 18.6565 14.2194 18.255 14.7864 18.8219L15.3462 19.3817C16.0296 20.0652 17.1377 20.0652 17.8211 19.3817L18.8817 18.3211C19.5651 17.6377 19.5651 16.5296 18.8817 15.8462L18.3219 15.2864C17.755 14.7194 18.1565 13.75 18.9583 13.75H19.75C20.7165 13.75 21.5 12.9665 21.5 12V10.5C21.5 9.5335 20.7165 8.75 19.75 8.75H18.9583C18.1565 8.75 17.755 7.78057 18.3219 7.2136L18.8817 6.65382C19.5651 5.9704 19.5651 4.86236 18.8817 4.17895L17.8211 3.11828C17.1376 2.43487 16.0296 2.43487 15.3462 3.11828L14.7864 3.67807C14.2194 4.24504 13.25 3.84349 13.25 3.04168V2.25C13.25 1.2835 12.4665 0.5 11.5 0.5H10.75ZM11.5 20.5H10.75H10C9.86193 20.5 9.75 20.3881 9.75 20.25L9.58033 18.8596C9.4944 18.1554 9.05516 17.5437 8.41535 17.2372C7.7018 16.8954 6.85605 16.9884 6.23386 17.4771L5.25 18.25C5.15237 18.3476 4.83722 18.4187 4.73959 18.3211L3.67893 17.2604C3.5813 17.1628 3.5813 17.0045 3.67893 16.9069L4.21942 16.3369C4.84623 15.6758 5.02544 14.7079 4.67683 13.8662C4.37911 13.1475 3.73925 12.6272 2.9749 12.4822L1.75 12.25C1.61193 12.25 1.5 12.1381 1.5 12V10.5C1.5 10.3619 1.61193 10.25 1.75 10.25H2.87779C3.70842 10.25 4.45726 9.74964 4.77513 8.98224C5.093 8.21484 4.93617 7.31231 4.44671 6.64121C4.27613 6.40734 4.11015 6.17348 3.97148 5.97572C3.75692 5.66972 3.789 5.25662 4.04627 4.98554C4.17892 4.84577 4.32592 4.69186 4.46349 4.54997C4.72045 4.28495 5.12416 4.25472 5.42689 4.46596C5.66322 4.63087 5.9533 4.83357 6.23676 5.03238C6.86822 5.47528 7.68461 5.56998 8.39719 5.27481C9.23534 4.92763 9.77689 4.10428 9.76373 3.19717L9.75 2.25C9.75 2.11193 9.86192 2 10 2L10.75 2L11.5 2C11.6381 2 11.75 2.11193 11.75 2.25L11.7363 3.19717C11.7231 4.10428 12.2647 4.92763 13.1028 5.27481C13.8154 5.56998 14.6318 5.47528 15.2632 5.03238C15.5467 4.83357 15.8368 4.63087 16.0731 4.46596C16.3758 4.25472 16.7795 4.28495 17.0365 4.54997C17.1741 4.69186 17.3211 4.84577 17.4537 4.98554C17.711 5.25662 17.7431 5.66972 17.5285 5.97572C17.3898 6.17348 17.2239 6.40734 17.0533 6.64121C16.5638 7.31231 16.407 8.21484 16.7249 8.98224C17.0427 9.74964 17.7916 10.25 18.6222 10.25H19.75C19.8881 10.25 20 10.3619 20 10.5V12C20 12.1381 19.8881 12.25 19.75 12.25L18.5251 12.4822C17.7607 12.6272 17.1209 13.1475 16.8232 13.8662C16.4746 14.7079 16.6538 15.6758 17.2806 16.3369L17.8211 16.9069C17.9187 17.0045 17.9187 17.1628 17.8211 17.2604L16.7604 18.3211C16.6628 18.4187 16.3476 18.3476 16.25 18.25L15.2661 17.4771C14.6439 16.9884 13.7982 16.8954 13.0847 17.2372C12.4448 17.5437 12.0056 18.1554 11.9197 18.8596L11.75 20.25C11.75 20.3881 11.6381 20.5 11.5 20.5ZM13.35 11.25C13.35 12.6307 12.2307 13.75 10.85 13.75C9.46929 13.75 8.35001 12.6307 8.35001 11.25C8.35001 9.86929 9.46929 8.75 10.85 8.75C12.2307 8.75 13.35 9.86929 13.35 11.25ZM14.85 11.25C14.85 13.4591 13.0591 15.25 10.85 15.25C8.64087 15.25 6.85001 13.4591 6.85001 11.25C6.85001 9.04086 8.64087 7.25 10.85 7.25C13.0591 7.25 14.85 9.04086 14.85 11.25Z" fill="#4C9EEB"/>
</svg>
