<svg width="23" height="21" viewBox="0 0 23 21" fill="none" xmlns="http://www.w3.org/2000/svg">
<path fill-rule="evenodd" clip-rule="evenodd" d="M15.2501 11C15.2501 13.2091 13.4593 15 11.2501 15C9.04099 15 7.25013 13.2091 7.25013 11C7.25013 8.79083 9.04099 6.99996 11.2501 6.99996C13.4593 6.99996 15.2501 8.79083 15.2501 11ZM13.7501 11C13.7501 12.3807 12.6308 13.5 11.2501 13.5C9.86942 13.5 8.75013 12.3807 8.75013 11C8.75013 9.61925 9.86942 8.49996 11.2501 8.49996C12.6308 8.49996 13.7501 9.61925 13.7501 11Z" fill="#687684"/>
<path fill-rule="evenodd" clip-rule="evenodd" d="M1.12223 7.65115L2.20444 7.03274L3.64991 17.5124C3.90584 19.3679 5.49167 20.75 7.36474 20.75H15.1355C17.0086 20.75 18.5944 19.3679 18.8503 17.5124L20.2958 7.03274L21.378 7.65115C21.7377 7.85665 22.1958 7.73171 22.4013 7.37207C22.6068 7.01243 22.4819 6.55429 22.1222 6.34878L12.6145 0.915798C11.7691 0.43269 10.7312 0.43269 9.88575 0.915798L0.378024 6.34878C0.0183861 6.55429 -0.106561 7.01243 0.098946 7.37207C0.304453 7.73171 0.762594 7.85665 1.12223 7.65115ZM11.8703 2.21816C11.486 1.99857 11.0142 1.99857 10.63 2.21816L3.60802 6.2307L5.13584 17.3074C5.2894 18.4207 6.2409 19.25 7.36474 19.25H15.1355C16.2594 19.25 17.2109 18.4207 17.3644 17.3074L18.8922 6.2307L11.8703 2.21816Z" fill="#687684"/>
</svg>
