<svg width="32" height="32" viewBox="0 0 32 32" fill="none" xmlns="http://www.w3.org/2000/svg">
<path fill-rule="evenodd" clip-rule="evenodd" d="M11.5 16C11.5 17.6569 10.1569 19 8.5 19C6.84315 19 5.5 17.6569 5.5 16C5.5 14.3431 6.84315 13 8.5 13C10.1569 13 11.5 14.3431 11.5 16ZM10 16C10 16.8284 9.32843 17.5 8.5 17.5C7.67157 17.5 7 16.8284 7 16C7 15.1716 7.67157 14.5 8.5 14.5C9.32843 14.5 10 15.1716 10 16Z" fill="#4C9EEB"/>
<path fill-rule="evenodd" clip-rule="evenodd" d="M16 19C17.6569 19 19 17.6569 19 16C19 14.3431 17.6569 13 16 13C14.3431 13 13 14.3431 13 16C13 17.6569 14.3431 19 16 19ZM16 17.5C16.8284 17.5 17.5 16.8284 17.5 16C17.5 15.1716 16.8284 14.5 16 14.5C15.1716 14.5 14.5 15.1716 14.5 16C14.5 16.8284 15.1716 17.5 16 17.5Z" fill="#4C9EEB"/>
<path fill-rule="evenodd" clip-rule="evenodd" d="M26.5 16C26.5 17.6569 25.1569 19 23.5 19C21.8431 19 20.5 17.6569 20.5 16C20.5 14.3431 21.8431 13 23.5 13C25.1569 13 26.5 14.3431 26.5 16ZM25 16C25 16.8284 24.3284 17.5 23.5 17.5C22.6716 17.5 22 16.8284 22 16C22 15.1716 22.6716 14.5 23.5 14.5C24.3284 14.5 25 15.1716 25 16Z" fill="#4C9EEB"/>
<path fill-rule="evenodd" clip-rule="evenodd" d="M32 16C32 24.8366 24.8366 32 16 32C7.16344 32 0 24.8366 0 16C0 7.16344 7.16344 0 16 0C24.8366 0 32 7.16344 32 16ZM30.5 16C30.5 24.0081 24.0081 30.5 16 30.5C7.99187 30.5 1.5 24.0081 1.5 16C1.5 7.99187 7.99187 1.5 16 1.5C24.0081 1.5 30.5 7.99187 30.5 16Z" fill="#4C9EEB"/>
</svg>
