<svg width="21" height="18" viewBox="0 0 21 18" fill="none" xmlns="http://www.w3.org/2000/svg">
<path d="M2.25024 0C1.14567 0 0.250244 0.89543 0.250244 2V2.05577C0.250244 2.07267 0.258778 2.08842 0.272931 2.09765L10.1137 8.51553C10.1967 8.56966 10.3038 8.56966 10.3868 8.51553L20.2276 2.09765C20.2417 2.08842 20.2502 2.07267 20.2502 2.05577V2C20.2502 0.895431 19.3548 0 18.2502 0H2.25024Z" fill="#4C9EEB"/>
<path d="M20.2502 3.96597C20.2502 3.92626 20.2062 3.9024 20.1729 3.92409L11.2062 9.77195C10.6252 10.1509 9.87527 10.1509 9.29428 9.77195L0.327558 3.92409C0.294299 3.9024 0.250244 3.92626 0.250244 3.96597V16C0.250244 17.1046 1.14568 18 2.25024 18H18.2502C19.3548 18 20.2502 17.1046 20.2502 16V3.96597Z" fill="#4C9EEB"/>
</svg>
