<svg width="24" height="22" viewBox="0 0 24 22" fill="none" xmlns="http://www.w3.org/2000/svg">
<path d="M20.25 4.25H19.75V4.75V7.25C19.75 7.38807 19.6381 7.5 19.5 7.5C19.3619 7.5 19.25 7.38807 19.25 7.25V4.75V4.25H18.75H16.25C16.1119 4.25 16 4.13807 16 4C16 3.86193 16.1119 3.75 16.25 3.75H18.75H19.25V3.25V0.75C19.25 0.611929 19.3619 0.5 19.5 0.5C19.6381 0.5 19.75 0.611929 19.75 0.75V3.25V3.75H20.25H22.75C22.8881 3.75 23 3.86193 23 4C23 4.13807 22.8881 4.25 22.75 4.25H20.25ZM2.28038 7.22066L1.5 6.69214V7.63465V19.25C1.5 19.8023 1.94772 20.25 2.5 20.25H18.5C19.0523 20.25 19.5 19.8023 19.5 19.25V11C19.5 10.8619 19.6119 10.75 19.75 10.75C19.8881 10.75 20 10.8619 20 11V19.25C20 20.0784 19.3284 20.75 18.5 20.75H2.5C1.67157 20.75 1 20.0784 1 19.25V5.25C1 4.42157 1.67157 3.75 2.5 3.75H12.75C12.8881 3.75 13 3.86193 13 4C13 4.13807 12.8881 4.25 12.75 4.25H2.5C1.94771 4.25 1.5 4.69772 1.5 5.25V5.82301V6.08826L1.71962 6.237L10.4313 12.1371C10.7792 12.3728 11.2374 12.3658 11.5779 12.1196L15.6035 9.20952C15.7689 9.09001 16 9.20813 16 9.41213C16 9.49236 15.9615 9.56773 15.8965 9.61473L11.8708 12.5248C11.36 12.8941 10.6728 12.9046 10.1509 12.5511L2.28038 7.22066Z" fill="white" stroke="white"/>
</svg>
