<svg width="20" height="20" viewBox="0 0 20 20" fill="none" xmlns="http://www.w3.org/2000/svg">
<path fill-rule="evenodd" clip-rule="evenodd" d="M17.4501 8.51762C17.4501 10.301 17.927 12.0519 18.8314 13.5889L19.8067 15.2464C20.0028 15.5798 19.7625 16 19.3757 16H14.6872C14.6309 16.3327 14.5373 16.6588 14.4076 16.9721C14.1814 17.518 13.85 18.0141 13.4321 18.432C13.0142 18.8498 12.5182 19.1813 11.9722 19.4075C11.4262 19.6336 10.8411 19.75 10.2501 19.75C9.65917 19.75 9.07401 19.6336 8.52805 19.4075C7.98208 19.1813 7.486 18.8498 7.06814 18.432C6.65028 18.0141 6.31881 17.518 6.09266 16.9721C5.96292 16.6588 5.8693 16.3327 5.81306 16H1.12442C0.73768 16 0.497356 15.5798 0.693481 15.2464L1.66878 13.5889C2.57317 12.0519 3.05008 10.301 3.05008 8.51762V6.62069C3.05008 2.96418 6.27363 0 10.2501 0C14.2265 0 17.4501 2.96418 17.4501 6.62069V8.51762ZM7.34538 16C7.38033 16.1353 7.42476 16.2683 7.47848 16.3981C7.62925 16.762 7.85023 17.0927 8.1288 17.3713C8.40738 17.6499 8.7381 17.8709 9.10207 18.0216C9.46605 18.1724 9.85616 18.25 10.2501 18.25C10.6441 18.25 11.0342 18.1724 11.3982 18.0216C11.7621 17.8709 12.0929 17.6499 12.3714 17.3713C12.65 17.0927 12.871 16.762 13.0218 16.3981C13.0755 16.2683 13.1199 16.1353 13.1549 16H7.34538Z" fill="#4C9EEB"/>
</svg>
