<svg width="20" height="20" viewBox="0 0 20 20" fill="none" xmlns="http://www.w3.org/2000/svg">
<path d="M3.5 3C3.22385 3 3 3.22388 3 3.5V5.5C3 5.77612 3.22385 6 3.5 6H5.5C5.77615 6 6 5.77612 6 5.5V3.5C6 3.22388 5.77615 3 5.5 3H3.5Z" fill="#4C9EEB"/>
<path fill-rule="evenodd" clip-rule="evenodd" d="M2 0C0.895416 0 0 0.895447 0 2V7C0 8.10455 0.895416 9 2 9H7C8.10458 9 9 8.10455 9 7V2C9 0.895447 8.10458 0 7 0H2ZM7 1.5H2C1.72385 1.5 1.5 1.72388 1.5 2V7C1.5 7.27612 1.72385 7.5 2 7.5H7C7.27615 7.5 7.5 7.27612 7.5 7V2C7.5 1.72388 7.27615 1.5 7 1.5Z" fill="#4C9EEB"/>
<path d="M3 14.5C3 14.2239 3.22385 14 3.5 14H5.5C5.77615 14 6 14.2239 6 14.5V16.5C6 16.7761 5.77615 17 5.5 17H3.5C3.22385 17 3 16.7761 3 16.5V14.5Z" fill="#4C9EEB"/>
<path fill-rule="evenodd" clip-rule="evenodd" d="M2 11C0.895416 11 0 11.8954 0 13V18C0 19.1046 0.895416 20 2 20H7C8.10458 20 9 19.1046 9 18V13C9 11.8954 8.10458 11 7 11H2ZM7 12.5H2C1.72385 12.5 1.5 12.7239 1.5 13V18C1.5 18.2761 1.72385 18.5 2 18.5H7C7.27615 18.5 7.5 18.2761 7.5 18V13C7.5 12.7239 7.27615 12.5 7 12.5Z" fill="#4C9EEB"/>
<path d="M14.5 3C14.2238 3 14 3.22388 14 3.5V5.5C14 5.77612 14.2238 6 14.5 6H16.5C16.7762 6 17 5.77612 17 5.5V3.5C17 3.22388 16.7762 3 16.5 3H14.5Z" fill="#4C9EEB"/>
<path fill-rule="evenodd" clip-rule="evenodd" d="M11 2C11 0.895447 11.8954 0 13 0H18C19.1046 0 20 0.895447 20 2V7C20 8.10455 19.1046 9 18 9H13C11.8954 9 11 8.10455 11 7V2ZM13 1.5H18C18.2762 1.5 18.5 1.72388 18.5 2V7C18.5 7.27612 18.2762 7.5 18 7.5H13C12.7238 7.5 12.5 7.27612 12.5 7V2C12.5 1.72388 12.7238 1.5 13 1.5Z" fill="#4C9EEB"/>
<path d="M11 11.5C11 11.2239 11.2238 11 11.5 11H13.5C13.7762 11 14 11.2239 14 11.5V13.5C14 13.7761 13.7762 14 13.5 14H11.5C11.2238 14 11 13.7761 11 13.5V11.5Z" fill="#4C9EEB"/>
<path d="M17 11.5C17 11.2239 17.2238 11 17.5 11H19.5C19.7762 11 20 11.2239 20 11.5V13.5C20 13.7761 19.7762 14 19.5 14H17.5C17.2238 14 17 13.7761 17 13.5V11.5Z" fill="#4C9EEB"/>
<path d="M17.5 17C17.2238 17 17 17.2239 17 17.5V19.5C17 19.7761 17.2238 20 17.5 20H19.5C19.7762 20 20 19.7761 20 19.5V17.5C20 17.2239 19.7762 17 19.5 17H17.5Z" fill="#4C9EEB"/>
<path d="M11 17.5C11 17.2239 11.2238 17 11.5 17H13.5C13.7762 17 14 17.2239 14 17.5V19.5C14 19.7761 13.7762 20 13.5 20H11.5C11.2238 20 11 19.7761 11 19.5V17.5Z" fill="#4C9EEB"/>
<path d="M14.5 14C14.2238 14 14 14.2239 14 14.5V16.5C14 16.7761 14.2238 17 14.5 17H16.5C16.7762 17 17 16.7761 17 16.5V14.5C17 14.2239 16.7762 14 16.5 14H14.5Z" fill="#4C9EEB"/>
</svg>
