<svg width="21" height="21" viewBox="0 0 21 21" fill="none" xmlns="http://www.w3.org/2000/svg">
<path fill-rule="evenodd" clip-rule="evenodd" d="M14.5354 16.2854C13.0513 17.3639 11.2249 18 9.25 18C4.27944 18 0.25 13.9706 0.25 9C0.25 4.02944 4.27944 0 9.25 0C14.2206 0 18.25 4.02944 18.25 9C18.25 10.9125 17.6535 12.6857 16.6363 14.1436L20.3107 17.818C20.8964 18.4038 20.8964 19.3536 20.3107 19.9393C19.7249 20.5251 18.7751 20.5251 18.1893 19.9393L14.5354 16.2854ZM15.25 9C15.25 12.3137 12.5637 15 9.25 15C5.93629 15 3.25 12.3137 3.25 9C3.25 5.68629 5.93629 3 9.25 3C12.5637 3 15.25 5.68629 15.25 9Z" fill="#4C9EEB"/>
</svg>
