<svg width="24" height="25" viewBox="0 0 24 25" fill="none" xmlns="http://www.w3.org/2000/svg">
<path d="M12.75 0.75C12.75 0.335786 12.4142 0 12 0C11.5858 0 11.25 0.335786 11.25 0.75V2.25C11.25 2.66421 11.5858 3 12 3C12.4142 3 12.75 2.66421 12.75 2.25V0.75Z" fill="#4C9EEB"/>
<path d="M18.379 10.7516C18.0897 9.27353 17.2962 7.94176 16.1339 6.98389C14.9716 6.02602 13.5127 5.50151 12.0066 5.49998C10.5005 5.49845 9.04056 6.02 7.87632 6.9755C6.71209 7.93101 5.91581 9.26116 5.62355 10.7387C5.33129 12.2162 5.56119 13.7493 6.27396 15.0761C6.98673 16.4029 8.13814 17.441 9.53143 18.013C9.9146 18.1703 10.0977 18.6084 9.9404 18.9916C9.78309 19.3748 9.34493 19.5579 8.96175 19.4006C7.24694 18.6966 5.82983 17.4189 4.95257 15.786C4.07531 14.153 3.79235 12.266 4.15206 10.4476C4.51177 8.62913 5.49181 6.99201 6.92471 5.81601C8.35761 4.64 10.1544 3.9981 12.0081 3.99998C13.8618 4.00186 15.6573 4.64742 17.0878 5.82634C18.5184 7.00525 19.4951 8.64435 19.8511 10.4635C20.2071 12.2827 19.9203 14.1691 19.0397 15.8003C18.1591 17.4315 16.7394 18.7062 15.0232 19.4067C14.6397 19.5633 14.2019 19.3793 14.0454 18.9958C13.8889 18.6123 14.0728 18.1745 14.4563 18.018C15.8508 17.4488 17.0043 16.4131 17.7198 15.0877C18.4352 13.7624 18.6683 12.2297 18.379 10.7516Z" fill="#4C9EEB"/>
<path d="M12 13C12.4142 13 12.75 13.3358 12.75 13.75V18.75C12.75 19.1642 12.4142 19.5 12 19.5C11.5858 19.5 11.25 19.1642 11.25 18.75V13.75C11.25 13.3358 11.5858 13 12 13Z" fill="#4C9EEB"/>
<path d="M20.6516 3.53033C20.9445 3.82322 20.9445 4.2981 20.6516 4.59099L19.591 5.65165C19.2981 5.94454 18.8232 5.94454 18.5303 5.65165C18.2374 5.35876 18.2374 4.88388 18.5303 4.59099L19.591 3.53033C19.8839 3.23744 20.3587 3.23744 20.6516 3.53033Z" fill="#4C9EEB"/>
<path d="M23.25 12.75C23.6642 12.75 24 12.4142 24 12C24 11.5858 23.6642 11.25 23.25 11.25H21.75C21.3358 11.25 21 11.5858 21 12C21 12.4142 21.3358 12.75 21.75 12.75H23.25Z" fill="#4C9EEB"/>
<path d="M3 12C3 12.4142 2.66421 12.75 2.25 12.75H0.75C0.335786 12.75 0 12.4142 0 12C0 11.5858 0.335786 11.25 0.75 11.25H2.25C2.66421 11.25 3 11.5858 3 12Z" fill="#4C9EEB"/>
<path d="M3.46967 4.59099C3.17678 4.2981 3.17678 3.82322 3.46967 3.53033C3.76256 3.23744 4.23744 3.23744 4.53033 3.53033L5.59099 4.59099C5.88388 4.88388 5.88388 5.35876 5.59099 5.65165C5.2981 5.94454 4.82322 5.94454 4.53033 5.65165L3.46967 4.59099Z" fill="#4C9EEB"/>
<path d="M8.25 21.25C8.25 20.8358 8.58579 20.5 9 20.5H15C15.4142 20.5 15.75 20.8358 15.75 21.25C15.75 21.6642 15.4142 22 15 22H9C8.58579 22 8.25 21.6642 8.25 21.25Z" fill="#4C9EEB"/>
<path d="M9.75 23C9.33579 23 9 23.3358 9 23.75C9 24.1642 9.33579 24.5 9.75 24.5H14.25C14.6642 24.5 15 24.1642 15 23.75C15 23.3358 14.6642 23 14.25 23H9.75Z" fill="#4C9EEB"/>
</svg>
